The Muppet Christmas Carol. 1992.DVDRip.x264.Multisubs.BeLLBoY




[b]IMDB:[/b]  http://www.imdb.com/title/tt0104940/

IMDB user rating: 7.5/10   10,254 votes 



[b]Cast:[/b] 

Michael Caine as Ebenezer Scrooge
And the Muppet Show performers



[b]Plot:[/b] 

Kermit the Frog, Miss Piggy, Fozzie and the entire cast of the Muppet universe come together to re-tell Charles Dicken's immortal classic "A Christmas Carol" This was the first time the Muppets appeared on screen since Jim Henson's death in 1990. Michael Caine gives a magnificent performance as Ebenezer Scrooge in a world full of muppet comedy and almost scary performances from the "Ghosts of Christmas past, present, and yet to come" 



[b]Info:[/b]


[code][b]General[/b]

Format                           : MPEG-4
Codec ID                         : isom
File size                        : 908 MiB
Duration                         : 1h 22mn
Overall bit rate                 : 1 540 Kbps



[b]Video[/b]

Format                           : AVC
Format/Info                      : Advanced Video Codec
Format profile                   : High@L3.1
Format settings, CABAC           : Yes
Format settings, ReFrames        : 4 frames
Codec ID                         : avc1
Bit rate mode                    : Variable
Bit rate                         : 1 400 Kbps
Maximum bit rate                 : 7 702 Kbps
Width                            : 720 pixels
Height                           : 400 pixels
Display aspect ratio             : 16/9
Frame rate mode                  : Constant
Frame rate                       : 25.000 fps
Resolution                       : 24 bits
Colorimetry                      : 4:2:0
Scan type                        : Progressive
Bits/(Pixel*Frame)               : 0.194
Stream size                      : 824 MiB (91%)
Writing library                  : x264 core 80 r1376M 3feaec2
Encoding settings                : cabac=1 / ref freames=4 / Trellis=2 


[b]Audio[/b]

Format                           : AAC
Format/Info                      : Advanced Audio Codec
Format version                   : Version 4
Format profile                   : LC
Bit rate mode                    : Variable
Bit rate                         : 139 Kbps
Maximum bit rate                 : 179 Kbps
Channel(s)                       : 2 channels
Channel positions                : L R
Sampling rate                    : 48.0 KHz
Resolution                       : 16 bits
Stream size                      : 82.1 MiB (9%)
Language                         : English[/code]

[b]Total shared folder size:[/b] 946 MG


[b]Screens:[/b] 
http://i279.photobucket.com/albums/kk160/room101bellboy/My%20uploads/Movies/The%20Muppet%20Christmas%20Carol/vlcsnap-00001.png 
http://i279.photobucket.com/albums/kk160/room101bellboy/My%20uploads/Movies/The%20Muppet%20Christmas%20Carol/vlcsnap-00002.png 
http://i279.photobucket.com/albums/kk160/room101bellboy/My%20uploads/Movies/The%20Muppet%20Christmas%20Carol/vlcsnap-00003.png



[b]Note:[/b]

Subtitles: English, Danish, Swedish, Norwegian, French, Spanish, Finnish, and Dutch.

Source: The.Muppets.Christmas.Carol.SE.1992.MULTI.PAL.DVDR-MONKEYBIZ (provided by Askeen, thanks m8)

Happy new year everyone.

Encoded by BeLLBoY


==========================================================================


Report bad torrents here:  http://forum.suprbay.org/forumdisplay.php?fid=29

My uploads:  http://forum.suprbay.org/showthread.php?tid=31015


==========================================================================



